<?xml version="1.0" encoding="UTF-8" standalone="no"?>
<!-- Created with Inkscape (http://www.inkscape.org/) -->

<svg
   width="1024"
   height="1024"
   viewBox="0 0 270.93333 270.93333"
   version="1.1"
   id="svg1"
   inkscape:version="1.3.2 (091e20e, 2023-11-25, custom)"
   sodipodi:docname="adaptive_icon_foreground.svg"
   inkscape:export-filename="tribu_app\assets\img\adaptive_icon_foreground.png"
   inkscape:export-xdpi="96"
   inkscape:export-ydpi="96"
   xmlns:inkscape="http://www.inkscape.org/namespaces/inkscape"
   xmlns:sodipodi="http://sodipodi.sourceforge.net/DTD/sodipodi-0.dtd"
   xmlns="http://www.w3.org/2000/svg"
   xmlns:svg="http://www.w3.org/2000/svg">
  <sodipodi:namedview
     id="namedview1"
     pagecolor="#ffffff"
     bordercolor="#000000"
     borderopacity="0.25"
     inkscape:showpageshadow="2"
     inkscape:pageopacity="0.0"
     inkscape:pagecheckerboard="0"
     inkscape:deskcolor="#d1d1d1"
     inkscape:document-units="mm"
     inkscape:zoom="0.18106587"
     inkscape:cx="-80.081355"
     inkscape:cy="-273.38118"
     inkscape:window-width="1920"
     inkscape:window-height="1009"
     inkscape:window-x="-8"
     inkscape:window-y="-8"
     inkscape:window-maximized="1"
     inkscape:current-layer="layer1" />
  <defs
     id="defs1" />
  <g
     inkscape:label="Layer 1"
     inkscape:groupmode="layer"
     id="layer1">
    <path
       style="fill:#3a3434;stroke-width:1.83897"
       d="M 117.32292,265.87951 C 111.78228,265.36547 96.566285,262.69888 90.823155,261.23543 83.750343,259.43309 70.866837,253.97817 65.348129,250.44919 53.492622,242.86801 44.16146,232.99814 38.18847,221.72154 35.951483,217.49822 35.928268,217.47523 32.293234,215.88072 26.089433,213.15944 21.426635,209.60227 16.346127,203.71487 3.267214,188.55873 0.17478901,165.04436 8.702444,145.5933 c 3.106218,-7.08506 7.84323,-13.20448 14.834348,-19.16351 2.576787,-2.1963 2.85294,-2.63953 4.052748,-6.50484 2.30321,-7.41997 6.869979,-14.99127 13.326037,-22.093484 6.864416,-7.551415 14.737851,-13.492826 25.370255,-19.144874 2.726955,-1.449576 5.1638,-3.064004 5.415183,-3.587603 0.251415,-0.52356 0.457089,-3.972183 0.457089,-7.663603 0,-5.843209 -0.09662,-6.711637 -0.746294,-6.711637 -0.41044,0 -2.743581,2.023276 -5.184717,4.496185 -9.789052,9.916363 -14.612856,13.952948 -22.873087,19.140412 -3.295171,2.06936 -6.470975,4.084994 -7.057284,4.479146 -0.586337,0.394191 -1.443918,1.68422 -1.905763,2.866764 -0.965046,2.470985 -2.83053,4.52629 -4.954394,5.45843 -1.405013,0.61668 -3.589848,0.545 -7.576463,-0.24835 -1.890939,-0.37633 -2.739102,0.10173 -6.854099,3.864334 -3.222669,2.94657 -6.790265,5.44564 -8.350445,5.84946 -2.49384,0.64542 -5.204991,-3.70513 -5.94490999,-9.539784 -0.456405,-3.598927 0.104837,-6.191849 1.51130899,-6.982049 0.570208,-0.320359 3.42175,-0.942836 6.336721,-1.383275 9.044715,-1.366613 9.24843,-1.464025 11.149032,-5.332196 1.674205,-3.407388 6.02318,-4.896992 9.999384,-3.424962 l 2.316356,0.857569 4.743536,-2.923693 C 42.368074,74.449493 49.084439,69.385386 53.262554,65.464072 59.102781,59.982818 65.593896,53.038085 65.834183,52.013917 66.101137,50.876626 65.774523,50.730383 59.484314,49.169784 54.730089,47.990279 48.798211,46.464338 41.510554,44.546203 39.989687,44.145928 37.19971,43.4249 35.310573,42.943962 c -3.971417,-1.011089 -5.552077,-2.386929 -5.552077,-4.832628 0,-3.263669 1.485066,-4.586612 6.518961,-5.807219 2.300909,-0.557905 25.392317,-6.607786 29.658976,-7.770563 0.506931,-0.138183 2.269738,-0.592566 3.917336,-1.009866 1.647599,-0.417264 6.521268,-1.71753 10.830329,-2.88946 4.309101,-1.171944 10.841877,-2.893904 14.517297,-3.826651 3.67538,-0.932647 10.830315,-2.785564 15.899845,-4.117483 28.0189,-7.3615657 26.06886,-7.0388868 32.49101,-5.3759418 8.39009,2.172506 12.06427,3.1358818 20.50855,5.3771238 4.81603,1.278259 11.54288,3.025372 14.94854,3.882573 3.40567,0.857121 9.52363,2.459597 13.59553,3.561056 4.07188,1.101459 9.26993,2.488375 11.55119,3.082084 2.28131,0.593729 5.80692,1.522775 7.83474,2.064539 5.67721,1.51691 14.73926,3.901648 19.58679,5.154458 9.2258,2.384343 11.2787,3.116059 12.55854,4.476284 1.60581,1.706642 1.70183,4.176476 0.23059,5.926682 -1.06569,1.267635 -1.44533,1.389991 -15.55418,5.011555 -5.86399,1.505229 -8.01415,2.071032 -20.50644,5.396222 -2.78716,0.741889 -5.22079,1.61741 -5.40812,1.945603 -0.1874,0.328193 -0.34383,5.292891 -0.34769,11.032608 -0.005,10.044082 0.2685,12.423035 1.43709,12.423035 1.37574,0 13.79462,7.37842 18.81644,11.179421 12.18548,9.223152 19.5225,19.167016 24.21128,32.813926 1.11029,3.23144 1.57049,3.92265 3.8572,5.79281 12.72722,10.40874 19.54918,25.32288 19.51772,42.66958 -0.0216,11.5985 -2.63811,20.53937 -8.67827,29.64804 -4.76146,7.18031 -11.33869,13.14754 -17.95586,16.2906 -4.78256,2.27165 -5.60951,3.01343 -7.36315,6.60474 -3.11613,6.38147 -11.12265,16.28244 -17.36383,21.47226 -8.1206,6.75274 -16.68014,11.57246 -27.31606,15.38115 -6.86196,2.4573 -9.7864,3.23419 -18.20417,4.836 -13.20807,2.51343 -12.46519,2.45606 -33.6432,2.59802 -11.27966,0.0754 -21.44176,0.0508 -22.58241,-0.0552 z m 32.26061,-27.70623 c 7.21106,-0.37853 17.61247,-1.6796 18.14388,-2.26954 0.39457,-0.43802 -0.10654,-3.59807 -1.3056,-8.23297 -0.32892,-1.27136 -0.93531,-3.69853 -1.34752,-5.39368 -2.96245,-12.18184 -3.81976,-15.15403 -4.37071,-15.15323 -0.15941,2.4e-4 -1.74146,0.32005 -3.5158,0.71091 -10.41875,2.29457 -28.60814,2.47092 -37.51748,0.36373 -5.56296,-1.31576 -5.76755,-1.22894 -6.7376,2.85898 -0.3246,1.36782 -1.0479,4.33627 -1.60736,6.5965 -0.55944,2.26017 -1.30539,5.323 -1.65761,6.80626 -0.35223,1.48326 -0.97031,4.026 -1.37352,5.65053 -1.07661,4.33746 -1.24701,5.62409 -0.78685,5.94116 1.29593,0.89273 10.39494,2.04933 18.80241,2.39004 9.4302,0.38222 11.28247,0.36086 23.27376,-0.26853 z m -50.877705,-4.4248 c 0.18303,-0.33009 0.89561,-3.04622 1.583525,-6.03579 0.68789,-2.98956 2.03714,-8.67181 2.99835,-12.62716 0.96117,-3.95535 1.76442,-8.06417 1.78493,-9.13068 l 0.0373,-1.93913 -4.00443,-1.98215 c -4.833025,-2.39235 -12.589025,-8.08626 -15.004768,-11.01536 -5.301987,-6.42889 -8.123911,-12.88905 -9.232982,-21.13676 -1.904202,-14.16151 3.648931,-26.49313 15.107535,-33.54869 5.80519,-3.57447 3.98243,-3.43655 45.395305,-3.43655 41.05586,0 38.94352,-0.15244 45.3952,3.27305 2.63013,1.39638 4.33954,2.82101 7.14996,5.95894 6.09516,6.80534 8.57495,13.45894 8.62713,23.14779 0.0335,6.21805 -0.89435,10.69937 -3.34725,16.16674 -1.65755,3.69442 -5.09214,8.75656 -7.50937,11.06775 -3.39374,3.24489 -9.61129,7.57757 -13.65994,9.5189 -4.50391,2.15962 -4.6502,2.4566 -3.45917,7.02211 0.42357,1.62359 1.35703,5.49468 2.07437,8.60249 2.57778,11.16789 3.71048,15.83448 3.94693,16.26094 0.31719,0.57206 1.7267,0.55113 3.04483,-0.0452 0.58225,-0.26332 2.30297,-0.87914 3.82381,-1.36823 9.43106,-3.03327 20.66316,-10.20716 25.97011,-16.58696 2.97069,-3.57124 4.57815,-5.99794 6.67399,-10.07532 6.36729,-12.38716 8.87944,-26.43866 9.79381,-54.78097 0.27537,-8.53317 0.20077,-10.83236 -0.48308,-14.89684 -2.5309,-15.04218 -12.37052,-25.90883 -31.12449,-34.373 -10.00958,-4.517604 -9.93478,-4.502894 -13.47557,-2.644524 -5.15837,2.707404 -14.54216,5.562384 -23.20965,7.061414 -10.06814,1.74128 -32.49894,1.45768 -41.89233,-0.52969 -1.77435,-0.3754 -4.09909,-0.82018 -5.16613,-0.98844 -2.79186,-0.44023 -12.274615,-3.71425 -15.925485,-5.498524 -3.47752,-1.69953 -3.12436,-1.73527 -9.892919,1.001304 -5.387861,2.17837 -6.246125,2.59472 -11.542724,5.59969 -8.362257,4.74426 -14.333011,10.06253 -18.294238,16.29492 -4.806739,7.56274 -5.312715,10.08762 -5.312715,26.51203 0,29.9734 3.006092,46.61467 10.921669,60.46066 5.621166,9.83261 16.880652,18.5297 29.864927,23.06845 2.0278,0.70885 4.20537,1.48075 4.83906,1.71532 1.69445,0.6272 3.12633,0.58944 3.50448,-0.0925 z m 14.763915,-53.58634 c 2.25683,-1.80813 3.54989,-3.68834 3.21188,-4.6702 -0.21723,-0.63101 -1.50001,-0.73272 -7.75358,-0.61489 -8.45819,0.15948 -8.91037,0.40459 -6.27887,3.40461 3.4891,3.97767 7.36274,4.65091 10.82057,1.88048 z m 53.69648,0.31093 c 2.3942,-1.69236 4.17998,-4.18282 3.66511,-5.11137 -0.25577,-0.46128 -2.28774,-0.58967 -7.6811,-0.48531 -8.33692,0.16135 -8.76778,0.4138 -6.04296,3.54104 3.31184,3.80092 6.63049,4.47911 10.05895,2.05564 z m -48.66143,-9.69268 c 0.15294,-0.77697 0.36334,-1.71832 0.46799,-2.09196 0.10471,-0.37362 -0.0249,-1.1249 -0.28528,-1.66947 -0.44483,-0.9265 -1.0612,-0.99016 -9.58435,-0.99016 -6.47022,0 -9.269135,0.17856 -9.661945,0.61643 -0.66946,0.74621 -0.71118,2.44892 -0.10352,4.23011 l 0.44945,1.31768 h 9.219915 9.21997 z m 54.09372,0.68007 c 0.29991,-0.40291 0.48096,-1.73206 0.40207,-2.95369 l -0.14338,-2.22113 -9.54176,-0.13874 c -8.95945,-0.13022 -9.57026,-0.0794 -10.00856,0.83333 -0.43866,0.91361 -0.10568,3.32715 0.64554,4.68237 0.18584,0.33518 3.57176,0.53046 9.19737,0.53046 7.14668,0 9.01085,-0.14447 9.44871,-0.73258 z m -54.16111,-7.79819 c 0.86434,-0.36969 0.96237,-2.66465 0.19423,-4.54399 l -0.53482,-1.30841 h -9.09826 -9.098275 l -0.50594,1.61769 c -1.36893,4.37696 -1.01619,4.54651 9.457155,4.54651 4.87137,0 9.18506,-0.14022 9.58598,-0.3119 z m 54.55878,-2.06506 c 0.24054,-3.66882 -0.0743,-3.78734 -10.05435,-3.78734 -8.4652,0 -8.71654,0.0291 -9.41482,1.14169 -0.7294,1.16073 -0.97652,4.04883 -0.40127,4.69002 0.17371,0.19367 4.68457,0.29005 10.02384,0.21411 l 9.70767,-0.13856 z m -56.13414,-7.65349 c 0,-1.87169 -3.58632,-5.72987 -5.74593,-6.18143 -3.52155,-0.73637 -6.72438,0.83232 -9.01264,4.41414 -1.82538,2.85723 -1.34137,3.06501 7.13985,3.06501 h 7.61872 z m 53.92127,0.12781 c 0,-2.81558 -4.08813,-6.53534 -7.18251,-6.53534 -2.6165,0 -3.91591,0.60389 -6.15847,2.86208 -1.36105,1.37051 -1.8676,2.28238 -1.8676,3.36188 v 1.48127 h 7.60436 7.60422 z"
       id="path1" />
  </g>
</svg>
