<?xml version="1.0" encoding="UTF-8" standalone="no"?>
<!-- Created with Inkscape (http://www.inkscape.org/) -->

<svg
   width="1024"
   height="1024"
   viewBox="0 0 270.93333 270.93333"
   version="1.1"
   id="svg1"
   inkscape:version="1.3.2 (091e20e, 2023-11-25, custom)"
   sodipodi:docname="ico_dark.svg"
   inkscape:export-filename="tribu_app\assets\img\adaptive_icon_foreground_dark.png"
   inkscape:export-xdpi="96"
   inkscape:export-ydpi="96"
   xmlns:inkscape="http://www.inkscape.org/namespaces/inkscape"
   xmlns:sodipodi="http://sodipodi.sourceforge.net/DTD/sodipodi-0.dtd"
   xmlns="http://www.w3.org/2000/svg"
   xmlns:svg="http://www.w3.org/2000/svg">
  <sodipodi:namedview
     id="namedview1"
     pagecolor="#ffffff"
     bordercolor="#000000"
     borderopacity="0.25"
     inkscape:showpageshadow="2"
     inkscape:pageopacity="0.0"
     inkscape:pagecheckerboard="0"
     inkscape:deskcolor="#d1d1d1"
     inkscape:document-units="mm"
     inkscape:zoom="0.72426347"
     inkscape:cx="396.95499"
     inkscape:cy="449.42209"
     inkscape:window-width="1920"
     inkscape:window-height="1009"
     inkscape:window-x="-8"
     inkscape:window-y="-8"
     inkscape:window-maximized="1"
     inkscape:current-layer="layer1" />
  <defs
     id="defs1" />
  <g
     inkscape:label="Layer 1"
     inkscape:groupmode="layer"
     id="layer1">
    <path
       style="fill:#f7e2c9;fill-opacity:1;stroke-width:1.83897"
       d="m 117.35609,265.21923 c -5.54064,-0.51404 -20.756631,-3.18063 -26.499761,-4.64408 -7.07282,-1.80235 -19.956319,-7.25726 -25.475022,-10.78624 -11.855516,-7.58118 -21.186672,-17.45105 -27.159663,-28.72766 -2.236987,-4.2233 -2.260202,-4.24631 -5.895237,-5.8408 -6.2038,-2.7213 -10.8666,-6.27846 -15.947108,-12.16587 C 3.3003865,187.89844 0.2079605,164.38408 8.7356155,144.933 c 3.1062195,-7.08506 7.8432305,-13.20448 14.8343495,-19.16351 2.576787,-2.19629 2.852941,-2.63954 4.052749,-6.50484 2.303209,-7.41996 6.869978,-14.99126 13.326037,-22.093472 6.864417,-7.55143 14.737856,-13.492827 25.370257,-19.144883 2.726953,-1.449574 5.163796,-3.064003 5.415183,-3.587606 0.251414,-0.523554 0.457086,-3.972175 0.457086,-7.663601 0,-5.843215 -0.09665,-6.711634 -0.746293,-6.711634 -0.410441,0 -2.743579,2.023273 -5.184713,4.496182 -9.789052,9.916363 -14.612862,13.952951 -22.873091,19.14042 -3.295172,2.069357 -6.470976,4.084981 -7.057284,4.479143 -0.586336,0.394191 -1.443918,1.68422 -1.905763,2.866763 -0.965046,2.470985 -2.83053,4.526286 -4.954394,5.458434 -1.405013,0.616676 -3.589848,0.54499 -7.576463,-0.248365 -1.89094,-0.376315 -2.739103,0.101693 -6.8541,3.864339 -3.222669,2.94658 -6.7902655,5.44564 -8.3504465,5.84947 -2.49384,0.64542 -5.20499,-3.70513 -5.94491,-9.539775 -0.456404,-3.59894 0.104839,-6.191861 1.51131,-6.982061 0.570207,-0.320359 3.421749,-0.942837 6.33672,-1.383275 9.0447175,-1.366612 9.2484315,-1.464025 11.1490335,-5.332197 1.674205,-3.407386 6.02318,-4.896992 9.999385,-3.424963 l 2.316355,0.857566 4.743537,-2.923691 c 5.601089,-3.452258 12.317454,-8.516356 16.495567,-12.437675 5.840226,-5.481246 12.331341,-12.425976 12.571632,-13.450149 0.266957,-1.137286 -0.05967,-1.283535 -6.349866,-2.844135 -4.754229,-1.179503 -10.686104,-2.705448 -17.973764,-4.623564 -1.520868,-0.40029 -4.310846,-1.121305 -6.199982,-1.602239 -3.971416,-1.011095 -5.552078,-2.386939 -5.552078,-4.832639 0,-3.263668 1.485067,-4.586612 6.518961,-5.807219 2.30091,-0.557903 25.39232,-6.607786 29.658973,-7.770562 0.506938,-0.138183 2.269742,-0.592566 3.917343,-1.009867 1.647602,-0.417264 6.521263,-1.71753 10.830333,-2.889458 4.3091,-1.171945 10.84187,-2.893905 14.51728,-3.826651 3.67538,-0.932648 10.830331,-2.785564 15.899861,-4.117485 28.01888,-7.3615654 26.06885,-7.0388864 32.491,-5.3759406 8.39008,2.1725057 12.06427,3.1358804 20.50855,5.3771246 4.81603,1.278259 11.54287,3.025372 14.94853,3.882572 3.40568,0.857122 9.52363,2.459597 13.59553,3.561056 4.07188,1.101459 9.26994,2.488375 11.55121,3.082084 2.28131,0.593728 5.80691,1.522774 7.83473,2.064539 5.67723,1.516911 14.73926,3.901648 19.58678,5.154459 9.22582,2.384342 11.27872,3.116058 12.55856,4.476283 1.60582,1.706642 1.70184,4.176475 0.2306,5.926681 -1.0657,1.267642 -1.44534,1.389982 -15.55419,5.011559 -5.86398,1.505212 -8.01414,2.071022 -20.50645,5.396206 -2.78716,0.741893 -5.2208,1.617412 -5.40812,1.945612 -0.18741,0.328191 -0.34383,5.292886 -0.3477,11.032608 -0.005,10.044072 0.2685,12.423042 1.43709,12.423042 1.37575,0 13.79466,7.378416 18.81646,11.179424 12.1855,9.223143 19.52251,19.16701 24.21129,32.81391 1.11026,3.23143 1.57049,3.92265 3.85718,5.7928 12.72724,10.40874 19.54918,25.32289 19.51772,42.66961 -0.0216,11.59849 -2.63811,20.53936 -8.67827,29.64804 -4.76145,7.18031 -11.33868,13.14755 -17.95585,16.2906 -4.78257,2.27164 -5.6095,3.01343 -7.36317,6.60473 -3.11612,6.38148 -11.12265,16.28245 -17.36382,21.47228 -8.1206,6.75273 -16.68014,11.57244 -27.31606,15.38113 -6.86196,2.4573 -9.78641,3.2342 -18.20417,4.83602 -13.20807,2.51341 -12.4652,2.45605 -33.6432,2.59801 -11.27965,0.0754 -21.44176,0.0508 -22.58241,-0.0552 z M 149.6167,237.513 c 7.21105,-0.37855 17.61247,-1.67959 18.14388,-2.26954 0.39456,-0.43803 -0.10656,-3.59807 -1.30561,-8.23297 -0.32892,-1.27137 -0.9353,-3.69854 -1.34751,-5.39368 -2.96247,-12.18184 -3.81976,-15.15402 -4.37071,-15.15322 -0.15942,2.4e-4 -1.74146,0.32004 -3.5158,0.7109 -10.41876,2.29456 -28.60814,2.47092 -37.51748,0.36372 -5.56295,-1.31575 -5.76755,-1.22893 -6.7376,2.85899 -0.32461,1.3678 -1.04789,4.33627 -1.60735,6.59649 -0.55945,2.26017 -1.3054,5.32301 -1.65762,6.80628 -0.35222,1.48324 -0.97032,4.02598 -1.37351,5.65051 -1.07663,4.33746 -1.24702,5.6241 -0.78685,5.94116 1.29593,0.89273 10.39493,2.04933 18.8024,2.39005 9.43019,0.38221 11.28246,0.36086 23.27376,-0.26853 z m -50.877701,-4.4248 c 0.18303,-0.3301 0.89561,-3.04622 1.583521,-6.0358 0.68789,-2.98955 2.03715,-8.6718 2.99835,-12.62714 0.96117,-3.95536 1.76442,-8.06419 1.78493,-9.1307 l 0.0373,-1.93912 -4.00442,-1.98215 c -4.833051,-2.39235 -12.589041,-8.08625 -15.004781,-11.01537 -5.30199,-6.42888 -8.123919,-12.88904 -9.232993,-21.13676 -1.904201,-14.16152 3.648933,-26.49314 15.107533,-33.54869 5.8052,-3.5745 3.98242,-3.43655 45.395291,-3.43655 41.05587,0 38.94352,-0.15245 45.39521,3.27306 2.63013,1.39638 4.33954,2.82099 7.14996,5.95892 6.09516,6.80535 8.57494,13.45894 8.62713,23.14781 0.0336,6.21805 -0.89434,10.69938 -3.34724,16.16673 -1.65756,3.69443 -5.09214,8.75657 -7.50937,11.06775 -3.39374,3.24488 -9.6113,7.57758 -13.65994,9.5189 -4.50393,2.15963 -4.65021,2.45661 -3.45918,7.02212 0.42356,1.62359 1.35702,5.49467 2.07436,8.60248 2.57779,11.16791 3.71049,15.83448 3.94694,16.26095 0.31719,0.57205 1.7267,0.55113 3.04483,-0.0452 0.58225,-0.26333 2.30297,-0.87914 3.82381,-1.36824 9.43106,-3.03327 20.66317,-10.20716 25.97012,-16.58695 2.97068,-3.57124 4.57814,-5.99793 6.674,-10.07532 6.36729,-12.38717 8.87944,-26.43866 9.7938,-54.78099 0.27535,-8.53317 0.20076,-10.83235 -0.48309,-14.89683 -2.5309,-15.04219 -12.37052,-25.90883 -31.12449,-34.37301 -10.00958,-4.517603 -9.93479,-4.502892 -13.47558,-2.644514 -5.15836,2.707394 -14.54215,5.562374 -23.20964,7.061394 -10.06814,1.74129 -32.49894,1.4577 -41.89232,-0.52968 -1.77436,-0.37539 -4.0991,-0.8202 -5.16614,-0.98844 -2.79185,-0.44021 -12.274591,-3.71422 -15.925491,-5.498488 -3.47749,-1.699527 -3.12435,-1.735278 -9.89291,1.001294 -5.387858,2.178384 -6.246123,2.594734 -11.542717,5.599704 -8.362257,4.74426 -14.333009,10.06252 -18.294235,16.29493 -4.806747,7.56272 -5.31272,10.0876 -5.31272,26.51201 0,29.97342 3.006091,46.61468 10.921671,60.46067 5.621163,9.83262 16.880653,18.52971 29.864921,23.06845 2.02781,0.70886 4.20537,1.48076 4.83907,1.71533 1.69445,0.6272 3.12632,0.58943 3.50448,-0.0925 z M 113.5029,179.50186 c 2.25683,-1.80813 3.54991,-3.68833 3.21189,-4.67021 -0.21723,-0.631 -1.50002,-0.7327 -7.75357,-0.61488 -8.4582,0.15948 -8.91039,0.40459 -6.27887,3.40461 3.48909,3.97768 7.36272,4.65091 10.82055,1.88048 z m 53.69648,0.31093 c 2.3942,-1.69236 4.17998,-4.18281 3.66513,-5.11138 -0.25578,-0.46129 -2.28774,-0.58967 -7.68112,-0.48529 -8.33691,0.16133 -8.76778,0.41379 -6.04295,3.54103 3.31183,3.80091 6.63049,4.47911 10.05894,2.05564 z m -48.66142,-9.6927 c 0.15294,-0.77695 0.36335,-1.7183 0.468,-2.09195 0.10469,-0.37361 -0.0249,-1.12489 -0.28529,-1.66946 -0.44483,-0.9265 -1.0612,-0.99017 -9.58434,-0.99017 -6.47022,0 -9.269141,0.17857 -9.661951,0.61644 -0.66946,0.74621 -0.71118,2.44892 -0.10343,4.23011 l 0.44945,1.31767 h 9.219911 9.21998 z m 54.09372,0.68008 c 0.29991,-0.40291 0.48096,-1.73204 0.40207,-2.95369 l -0.14339,-2.22112 -9.54175,-0.13874 c -8.95946,-0.13022 -9.57027,-0.0795 -10.00856,0.83334 -0.43866,0.9136 -0.10571,3.32715 0.64553,4.68236 0.18585,0.33517 3.57176,0.53047 9.19739,0.53047 7.14667,0 9.01084,-0.14449 9.44869,-0.7326 z m -54.16112,-7.79819 c 0.86436,-0.36968 0.96239,-2.66464 0.19423,-4.54399 l -0.53481,-1.3084 h -9.09826 -9.098261 l -0.50595,1.61768 c -1.36893,4.37697 -1.01619,4.54652 9.457161,4.54652 4.87136,0 9.18505,-0.14023 9.58598,-0.3119 z m 54.55879,-2.06506 c 0.24054,-3.6688 -0.0743,-3.78733 -10.05436,-3.78733 -8.46519,0 -8.71654,0.0292 -9.41482,1.14169 -0.7294,1.16073 -0.97652,4.04883 -0.40126,4.69002 0.1737,0.19367 4.68456,0.29005 10.02384,0.2141 l 9.70766,-0.13855 z m -56.13414,-7.6535 c 0,-1.87169 -3.58631,-5.72987 -5.74593,-6.18143 -3.52154,-0.73637 -6.72438,0.83232 -9.01265,4.41414 -1.82536,2.85723 -1.34136,3.06502 7.13985,3.06502 h 7.61873 z m 53.92127,0.1278 c 0,-2.81557 -4.08813,-6.53533 -7.18251,-6.53533 -2.61651,0 -3.91591,0.60389 -6.15848,2.86208 -1.36104,1.37052 -1.86759,2.28239 -1.86759,3.36188 v 1.48127 h 7.60436 7.60422 z"
       id="path1" />
  </g>
</svg>
